<svg width="32" height="32" viewBox="0 0 32 32" fill="none" xmlns="http://www.w3.org/2000/svg">
<path d="M26.7334 14.6666H7.88008L9.61341 12.9466C9.86449 12.6955 10.0055 12.355 10.0055 11.9999C10.0055 11.6449 9.86449 11.3043 9.61341 11.0533C9.36234 10.8022 9.02182 10.6611 8.66675 10.6611C8.31168 10.6611 7.97115 10.8022 7.72008 11.0533L3.72008 15.0533C3.59511 15.1772 3.49592 15.3247 3.42823 15.4872C3.36053 15.6496 3.32568 15.8239 3.32568 15.9999C3.32568 16.1759 3.36053 16.3502 3.42823 16.5127C3.49592 16.6752 3.59511 16.8226 3.72008 16.9466L7.72008 20.9466C7.84403 21.0716 7.9915 21.1708 8.15398 21.2384C8.31646 21.3061 8.49073 21.341 8.66675 21.341C8.84276 21.341 9.01704 21.3061 9.17952 21.2384C9.342 21.1708 9.48946 21.0716 9.61341 20.9466C9.73839 20.8226 9.83758 20.6752 9.90527 20.5127C9.97296 20.3502 10.0078 20.1759 10.0078 19.9999C10.0078 19.8239 9.97296 19.6496 9.90527 19.4872C9.83758 19.3247 9.73839 19.1772 9.61341 19.0533L7.88008 17.3333H26.7334C27.0641 17.3171 27.377 17.1785 27.6111 16.9443C27.8453 16.7102 27.9839 16.3973 28.0001 16.0666V15.9999C28.0005 15.6576 27.8692 15.3281 27.6334 15.0799C27.3976 14.8317 27.0754 14.6837 26.7334 14.6666V14.6666Z" fill="white"/>
<path d="M26.7333 22.6667H5.26667C4.56711 22.6667 4 23.2339 4 23.9334V24.0667C4 24.7663 4.56711 25.3334 5.26667 25.3334H26.7333C27.4329 25.3334 28 24.7663 28 24.0667V23.9334C28 23.2339 27.4329 22.6667 26.7333 22.6667Z" fill="white"/>
<path d="M26.7333 6.66675H5.26667C4.56711 6.66675 4 7.23385 4 7.93341V8.06675C4 8.76631 4.56711 9.33341 5.26667 9.33341H26.7333C27.4329 9.33341 28 8.76631 28 8.06675V7.93341C28 7.23385 27.4329 6.66675 26.7333 6.66675Z" fill="white"/>
</svg>
